<svg width="47" height="36" viewBox="0 0 47 36" fill="none" xmlns="http://www.w3.org/2000/svg">
<path d="M8.66406 11.9141H38.8538C37.6426 22.4394 37.0836 27.8758 38.8538 35.748H8.66406C9.81149 28.5493 9.83783 23.4202 8.66406 11.9141Z" fill="white"/>
<path d="M9.21202 31.6719L38.105 31.6802C38.288 32.6622 38.5696 34.6681 38.9486 35.7453L8.60156 35.7389C8.86859 34.6682 9.06665 32.6673 9.21202 31.6719Z" fill="#DADADA"/>
<path d="M13.7969 14.5625H17.7685V28.3103C15.195 18.8582 17.6666 16.9047 13.7969 14.5625Z" fill="#DADADA"/>
<path d="M32.7422 14.5625H28.7706V28.3103C31.344 18.8582 28.8724 16.9047 32.7422 14.5625Z" fill="#DADADA"/>
<path d="M26.3281 12.9336H23.2731V26.7833C25.2526 17.2611 23.3514 15.2932 26.3281 12.9336Z" fill="#DADADA"/>
<path d="M20.0156 12.9336H23.2744V26.7833C21.1628 17.2611 23.1908 15.2932 20.0156 12.9336Z" fill="#DADADA"/>
<circle cx="9.53359" cy="16.7055" r="9.53359" fill="white"/>
<circle cx="36.7602" cy="16.6195" r="9.53359" fill="white"/>
<ellipse cx="21.8389" cy="7.94466" rx="11.917" ry="7.94466" fill="white"/>
<ellipse cx="21.7451" cy="13.5462" rx="11.917" ry="7.94466" fill="white"/>
<circle cx="35.8934" cy="33.7059" r="1.01836" fill="#C0C0C0"/>
</svg>
