<svg width="193" height="59" viewBox="0 0 193 59" fill="none" xmlns="http://www.w3.org/2000/svg">
<path d="M36.6929 8.82C37.0729 9.1 37.4729 9.45 37.8929 9.87C38.3329 10.29 38.7429 10.72 39.1229 11.16C39.5029 11.6 39.7929 12.02 39.9929 12.42L39.4829 26.22C39.2029 26.62 38.8429 27.06 38.4029 27.54C37.9629 28.02 37.4929 28.48 36.9929 28.92C36.4929 29.34 36.0129 29.7 35.5529 30H29.9729C29.6529 29.96 29.2329 29.8 28.7129 29.52C28.1929 29.24 27.6529 28.9 27.0929 28.5C26.5329 28.08 26.0429 27.65 25.6229 27.21C25.2029 26.75 24.9329 26.34 24.8129 25.98L25.6229 12.57C25.8229 12.23 26.1029 11.83 26.4629 11.37C26.8429 10.89 27.2529 10.43 27.6929 9.99C28.1329 9.53 28.5329 9.15 28.8929 8.85C30.3529 8.57 31.7229 8.43 33.0029 8.43C34.3029 8.41 35.5329 8.54 36.6929 8.82ZM28.9229 26.91L35.7029 25.8C35.9029 24.88 36.0629 23.84 36.1829 22.68C36.3229 21.52 36.4029 20.32 36.4229 19.08C36.4629 17.82 36.4429 16.61 36.3629 15.45C36.3029 14.27 36.1729 13.22 35.9729 12.3C34.9929 12.08 33.9229 11.98 32.7629 12C31.6229 12.02 30.5629 12.18 29.5829 12.48C29.2829 13.46 29.0429 14.6 28.8629 15.9C28.6829 17.2 28.5529 18.54 28.4729 19.92C28.4129 21.28 28.4229 22.58 28.5029 23.82C28.5829 25.04 28.7229 26.07 28.9229 26.91ZM45.7238 13.08C45.9438 13.78 46.3738 14.43 47.0138 15.03C47.6538 15.63 48.4038 16.23 49.2638 16.83C50.1438 17.41 51.0438 18.04 51.9638 18.72C52.9038 19.4 53.7838 20.18 54.6038 21.06C55.4438 21.94 56.1238 22.97 56.6438 24.15C56.5238 24.93 56.2338 25.72 55.7738 26.52C55.3138 27.3 54.7638 28.01 54.1238 28.65C53.4838 29.29 52.8238 29.79 52.1438 30.15C51.4238 30.27 50.5938 30.35 49.6538 30.39C48.7138 30.45 47.7338 30.43 46.7138 30.33C45.7138 30.23 44.7438 30.03 43.8038 29.73C43.5238 29.51 43.1938 29.18 42.8138 28.74C42.4338 28.3 42.1038 27.89 41.8238 27.51L42.3038 22.89C42.6838 22.77 43.1238 22.69 43.6238 22.65C44.1438 22.61 44.6038 22.65 45.0038 22.77L45.2738 26.67C46.0738 26.79 46.9438 26.83 47.8838 26.79C48.8438 26.75 49.7838 26.64 50.7038 26.46C51.6438 26.26 52.4538 25.98 53.1338 25.62C52.7338 24.82 52.1638 24.09 51.4238 23.43C50.6838 22.75 49.8638 22.1 48.9638 21.48C48.0838 20.84 47.2038 20.19 46.3238 19.53C45.4438 18.87 44.6438 18.17 43.9238 17.43C43.2238 16.69 42.6938 15.86 42.3338 14.94C42.4738 14.16 42.7138 13.39 43.0538 12.63C43.4138 11.85 43.8238 11.15 44.2838 10.53C44.7638 9.89 45.2338 9.41 45.6938 9.09C48.5938 8.27 51.5438 8.16 54.5438 8.76C54.7438 8.88 54.9438 9.09 55.1438 9.39C55.3438 9.67 55.5338 9.97 55.7138 10.29C55.9138 10.61 56.0738 10.86 56.1938 11.04L55.7438 15.12C55.3638 15.26 54.9338 15.33 54.4538 15.33C53.9938 15.33 53.5338 15.28 53.0738 15.18L52.8038 11.94C52.1238 11.88 51.3638 11.88 50.5238 11.94C49.6838 11.98 48.8438 12.09 48.0038 12.27C47.1638 12.45 46.4038 12.72 45.7238 13.08ZM84.9708 20.31L85.8108 30.06L84.1308 30.48C83.6108 30.22 83.0808 29.87 82.5408 29.43C82.0008 28.97 81.5608 28.42 81.2208 27.78L81.8808 19.92L81.5808 13.08L76.3308 29.01L75.2208 29.37C73.9408 28.63 72.9508 27.57 72.2508 26.19L69.9408 13.83L69.1308 20.31L68.8608 30.06L67.1208 30.48C66.0808 29.96 65.2108 29.06 64.5108 27.78L66.2208 19.92L67.0608 12.27L64.5408 12.36C64.2608 11.88 64.1008 11.33 64.0608 10.71C64.0408 10.07 64.1008 9.5 64.2408 9H68.5908C68.8908 9.14 69.2508 9.36 69.6708 9.66C70.1108 9.96 70.5508 10.28 70.9908 10.62C71.4508 10.96 71.8408 11.28 72.1608 11.58L75.1308 24.03L80.3208 9.39L81.1908 8.79C81.4108 8.83 81.7308 8.94 82.1508 9.12C82.5908 9.3 83.0208 9.5 83.4408 9.72C83.8608 9.94 84.1608 10.15 84.3408 10.35L84.9708 20.31ZM99.3546 25.29C99.4946 25.47 99.6446 25.82 99.8046 26.34C99.9846 26.86 100.065 27.32 100.045 27.72C99.1846 28.08 98.2846 28.44 97.3446 28.8C96.4046 29.14 95.5246 29.46 94.7046 29.76C93.9046 30.06 93.2446 30.3 92.7246 30.48C92.1046 30.32 91.4546 30.07 90.7746 29.73C90.0946 29.39 89.4746 28.99 88.9146 28.53C88.3546 28.05 87.9546 27.57 87.7146 27.09L88.1346 17.91C88.4146 17.41 88.8046 16.91 89.3046 16.41C89.8246 15.89 90.3346 15.42 90.8346 15C91.9946 14.74 93.1246 14.58 94.2246 14.52C95.3446 14.46 96.4146 14.51 97.4346 14.67C97.6146 14.77 97.8546 14.99 98.1546 15.33C98.4746 15.65 98.7846 15.98 99.0846 16.32C99.3846 16.66 99.5846 16.91 99.6846 17.07L99.5646 21.54C99.0446 21.92 98.3446 22.32 97.4646 22.74C96.5846 23.16 95.6146 23.57 94.5546 23.97C93.4946 24.35 92.4346 24.69 91.3746 24.99C91.3946 25.37 91.4246 25.74 91.4646 26.1C91.5046 26.46 91.5546 26.81 91.6146 27.15L99.3546 25.29ZM96.3546 17.76C95.6346 17.66 94.9346 17.63 94.2546 17.67C93.5746 17.71 92.8646 17.83 92.1246 18.03C91.9246 18.65 91.7646 19.32 91.6446 20.04C91.5246 20.76 91.4346 21.49 91.3746 22.23C92.2346 21.95 93.1346 21.59 94.0746 21.15C95.0346 20.69 95.9046 20.21 96.6846 19.71L96.3546 17.76ZM105.051 17.94C105.351 18.56 105.821 19.11 106.461 19.59C107.101 20.05 107.821 20.54 108.621 21.06C109.421 21.56 110.211 22.16 110.991 22.86C111.791 23.54 112.501 24.41 113.121 25.47C112.961 26.39 112.671 27.26 112.251 28.08C111.831 28.9 111.321 29.54 110.721 30C109.741 30.26 108.661 30.4 107.481 30.42C106.301 30.46 105.041 30.35 103.701 30.09C103.441 29.89 103.141 29.64 102.801 29.34C102.461 29.02 102.161 28.69 101.901 28.35L102.051 24.42C102.391 24.3 102.791 24.23 103.251 24.21C103.711 24.17 104.131 24.2 104.511 24.3L104.991 27.57C105.871 27.71 106.771 27.72 107.691 27.6C108.631 27.46 109.411 27.24 110.031 26.94C109.531 26.28 108.901 25.69 108.141 25.17C107.401 24.65 106.621 24.14 105.801 23.64C105.001 23.12 104.251 22.53 103.551 21.87C102.871 21.21 102.341 20.4 101.961 19.44C102.021 19 102.151 18.5 102.351 17.94C102.551 17.36 102.791 16.81 103.071 16.29C103.371 15.77 103.691 15.36 104.031 15.06C105.331 14.7 106.571 14.52 107.751 14.52C108.931 14.5 110.191 14.63 111.531 14.91C111.791 15.07 112.061 15.35 112.341 15.75C112.641 16.15 112.871 16.47 113.031 16.71L112.611 20.43C112.271 20.55 111.881 20.61 111.441 20.61C111.001 20.61 110.581 20.57 110.181 20.49L109.911 17.43C109.111 17.37 108.281 17.38 107.421 17.46C106.581 17.54 105.791 17.7 105.051 17.94ZM125.996 25.8C126.136 25.98 126.286 26.3 126.446 26.76C126.606 27.22 126.676 27.65 126.656 28.05C126.116 28.37 125.496 28.69 124.796 29.01C124.096 29.33 123.416 29.62 122.756 29.88C122.116 30.14 121.576 30.34 121.136 30.48C120.616 30.32 120.046 30.07 119.426 29.73C118.806 29.39 118.246 28.99 117.746 28.53C117.266 28.05 116.956 27.57 116.816 27.09L117.476 18.51L115.166 18.96L114.416 16.92L117.506 14.25L117.296 11.85C117.636 11.49 118.046 11.14 118.526 10.8C119.006 10.44 119.466 10.17 119.906 9.99L121.016 10.77L120.896 14.94C121.716 14.86 122.556 14.81 123.416 14.79C124.296 14.77 125.166 14.8 126.026 14.88L126.326 17.28L125.396 18.24C123.796 18.12 122.266 18.09 120.806 18.15C120.666 19.05 120.566 20.03 120.506 21.09C120.446 22.15 120.446 23.2 120.506 24.24C120.566 25.26 120.706 26.2 120.926 27.06L125.996 25.8ZM138.074 14.52C138.534 14.76 138.974 15.21 139.394 15.87C139.834 16.51 140.144 17.18 140.324 17.88L140.054 21.63C139.714 21.87 139.284 22.05 138.764 22.17C138.244 22.27 137.764 22.33 137.324 22.35L136.604 21.66C136.704 20.92 136.764 20.27 136.784 19.71C136.824 19.13 136.804 18.62 136.724 18.18C136.104 18.64 135.524 19.31 134.984 20.19C134.464 21.05 133.984 22.01 133.544 23.07L133.634 30C133.194 30.12 132.684 30.18 132.104 30.18C131.524 30.18 131.004 30.12 130.544 30C129.924 29.34 129.414 28.59 129.014 27.75C129.154 27.09 129.354 26.39 129.614 25.65C129.874 24.89 130.174 24.14 130.514 23.4V22.32L130.154 18.18L127.544 18.84C127.404 18.6 127.234 18.27 127.034 17.85C126.834 17.41 126.714 16.96 126.674 16.5L130.724 14.52C130.924 14.54 131.204 14.65 131.564 14.85C131.944 15.05 132.314 15.27 132.674 15.51C133.054 15.73 133.334 15.92 133.514 16.08L133.394 18.45C134.214 17.31 135.044 16.37 135.884 15.63C136.724 14.89 137.454 14.52 138.074 14.52ZM153.173 25.29C153.313 25.47 153.463 25.82 153.623 26.34C153.803 26.86 153.883 27.32 153.863 27.72C153.003 28.08 152.103 28.44 151.163 28.8C150.223 29.14 149.343 29.46 148.523 29.76C147.723 30.06 147.063 30.3 146.543 30.48C145.923 30.32 145.273 30.07 144.593 29.73C143.913 29.39 143.293 28.99 142.733 28.53C142.173 28.05 141.773 27.57 141.533 27.09L141.953 17.91C142.233 17.41 142.623 16.91 143.123 16.41C143.643 15.89 144.153 15.42 144.653 15C145.813 14.74 146.943 14.58 148.043 14.52C149.163 14.46 150.233 14.51 151.253 14.67C151.433 14.77 151.673 14.99 151.973 15.33C152.293 15.65 152.603 15.98 152.903 16.32C153.203 16.66 153.403 16.91 153.503 17.07L153.383 21.54C152.863 21.92 152.163 22.32 151.283 22.74C150.403 23.16 149.433 23.57 148.373 23.97C147.313 24.35 146.253 24.69 145.193 24.99C145.213 25.37 145.243 25.74 145.283 26.1C145.323 26.46 145.373 26.81 145.433 27.15L153.173 25.29ZM150.173 17.76C149.453 17.66 148.753 17.63 148.073 17.67C147.393 17.71 146.683 17.83 145.943 18.03C145.743 18.65 145.583 19.32 145.463 20.04C145.343 20.76 145.253 21.49 145.193 22.23C146.053 21.95 146.953 21.59 147.893 21.15C148.853 20.69 149.723 20.21 150.503 19.71L150.173 17.76ZM158.869 17.94C159.169 18.56 159.639 19.11 160.279 19.59C160.919 20.05 161.639 20.54 162.439 21.06C163.239 21.56 164.029 22.16 164.809 22.86C165.609 23.54 166.319 24.41 166.939 25.47C166.779 26.39 166.489 27.26 166.069 28.08C165.649 28.9 165.139 29.54 164.539 30C163.559 30.26 162.479 30.4 161.299 30.42C160.119 30.46 158.859 30.35 157.519 30.09C157.259 29.89 156.959 29.64 156.619 29.34C156.279 29.02 155.979 28.69 155.719 28.35L155.869 24.42C156.209 24.3 156.609 24.23 157.069 24.21C157.529 24.17 157.949 24.2 158.329 24.3L158.809 27.57C159.689 27.71 160.589 27.72 161.509 27.6C162.449 27.46 163.229 27.24 163.849 26.94C163.349 26.28 162.719 25.69 161.959 25.17C161.219 24.65 160.439 24.14 159.619 23.64C158.819 23.12 158.069 22.53 157.369 21.87C156.689 21.21 156.159 20.4 155.779 19.44C155.839 19 155.969 18.5 156.169 17.94C156.369 17.36 156.609 16.81 156.889 16.29C157.189 15.77 157.509 15.36 157.849 15.06C159.149 14.7 160.389 14.52 161.569 14.52C162.749 14.5 164.009 14.63 165.349 14.91C165.609 15.07 165.879 15.35 166.159 15.75C166.459 16.15 166.689 16.47 166.849 16.71L166.429 20.43C166.089 20.55 165.699 20.61 165.259 20.61C164.819 20.61 164.399 20.57 163.999 20.49L163.729 17.43C162.929 17.37 162.099 17.38 161.239 17.46C160.399 17.54 159.609 17.7 158.869 17.94Z" fill="white"/>
<path d="M54.6664 48.549C54.7804 48.701 54.8944 48.9163 55.0084 49.195C55.1224 49.4737 55.1921 49.7587 55.2174 50.05L52.6524 51.304C52.5258 51.2913 52.3421 51.2217 52.1014 51.095C51.8734 50.9683 51.6391 50.829 51.3984 50.677C51.1704 50.525 50.9994 50.4047 50.8854 50.316L50.9804 48.397C50.2711 49.2457 49.5428 49.9297 48.7954 50.449C48.0608 50.9683 47.4464 51.2533 46.9524 51.304C46.7624 51.2027 46.5281 51.0253 46.2494 50.772C45.9834 50.506 45.7301 50.2147 45.4894 49.898C45.2614 49.5687 45.1094 49.2583 45.0334 48.967L45.4324 43.723C45.6224 43.3177 45.8948 42.9123 46.2494 42.507C46.6041 42.089 46.9588 41.7533 47.3134 41.5C48.5928 41.1707 49.8721 41.1263 51.1514 41.367L51.1704 37.852L49.6694 38.232C49.5808 38.08 49.4731 37.871 49.3464 37.605C49.2198 37.3263 49.1438 37.0413 49.1184 36.75L51.6834 35.496C51.8101 35.5087 51.9874 35.572 52.2154 35.686C52.4561 35.8 52.6904 35.933 52.9184 36.085C53.1591 36.237 53.3364 36.37 53.4504 36.484L52.8804 46.326L53.0514 48.967L54.6664 48.549ZM47.6554 48.986C48.0228 48.8593 48.4154 48.606 48.8334 48.226C49.2641 47.8333 49.6758 47.3647 50.0684 46.82C50.4738 46.2627 50.8284 45.6737 51.1324 45.053L51.1514 43.324C50.6068 43.1973 50.0494 43.1593 49.4794 43.21C48.9094 43.248 48.3838 43.3303 47.9024 43.457C47.6618 44.1157 47.4908 44.7807 47.3894 45.452C47.3008 46.1107 47.2564 46.7123 47.2564 47.257C47.2691 47.8017 47.3134 48.2323 47.3894 48.549C47.4654 48.8657 47.5541 49.0113 47.6554 48.986ZM65.0292 48.549C65.1432 48.701 65.2572 48.9163 65.3712 49.195C65.4852 49.4737 65.5548 49.7587 65.5802 50.05L63.0152 51.304C62.7112 51.2153 62.3818 51.0697 62.0272 50.867C61.6852 50.6643 61.4255 50.4807 61.2482 50.316L61.3242 48.929C60.6908 49.6257 60.0512 50.183 59.4052 50.601C58.7592 51.019 58.1955 51.2533 57.7142 51.304C57.5242 51.2027 57.2898 51.0253 57.0112 50.772C56.7452 50.506 56.4918 50.2147 56.2512 49.898C56.0232 49.5687 55.8712 49.2583 55.7952 48.967L56.1942 43.723C56.3842 43.3177 56.6565 42.9123 57.0112 42.507C57.3658 42.089 57.7205 41.7533 58.0752 41.5C58.9872 41.3353 59.8738 41.2403 60.7352 41.215C61.5965 41.177 62.5465 41.3227 63.5852 41.652C63.7245 41.804 63.8512 41.9877 63.9652 42.203C64.0792 42.4183 64.1742 42.6273 64.2502 42.83C64.3388 43.02 64.3895 43.1657 64.4022 43.267C64.2755 43.8243 64.1045 44.369 63.8892 44.901C63.6865 45.433 63.4395 45.9397 63.1482 46.421L63.3762 48.967L65.0292 48.549ZM58.4172 48.986C58.8732 48.8213 59.3735 48.4667 59.9182 47.922C60.4755 47.3773 60.9822 46.7313 61.4382 45.984L61.5142 43.115C60.9948 43.1023 60.4945 43.1277 60.0132 43.191C59.5318 43.2543 59.0758 43.3493 58.6452 43.476C58.4172 44.1093 58.2525 44.7553 58.1512 45.414C58.0625 46.06 58.0182 46.6617 58.0182 47.219C58.0308 47.7637 58.0752 48.2007 58.1512 48.53C58.2272 48.8593 58.3158 49.0113 58.4172 48.986ZM72.5174 49.005L78.3694 47.827L78.8444 48.796C78.6417 49.1887 78.3567 49.5877 77.9894 49.993C77.622 50.3857 77.2674 50.7213 76.9254 51H73.2014C72.9987 50.9747 72.7264 50.8733 72.3844 50.696C72.055 50.5187 71.713 50.3033 71.3584 50.05C71.0037 49.784 70.6934 49.5117 70.4274 49.233C70.1614 48.9417 69.9904 48.682 69.9144 48.454L70.4274 39.942C70.554 39.7267 70.7314 39.4733 70.9594 39.182C71.2 38.878 71.4597 38.5867 71.7384 38.308C72.017 38.0167 72.2704 37.776 72.4984 37.586C73.423 37.4087 74.3477 37.32 75.2724 37.32C76.2097 37.32 77.1407 37.4593 78.0654 37.738C78.2427 37.9027 78.4201 38.118 78.5974 38.384C78.7747 38.6373 78.914 38.8653 79.0154 39.068L78.7494 41.861C78.5341 41.937 78.2491 41.9813 77.8944 41.994C77.5397 41.994 77.2357 41.9687 76.9824 41.918L76.7164 39.543C76.0957 39.4923 75.456 39.486 74.7974 39.524C74.1514 39.5493 73.537 39.6507 72.9544 39.828C72.7644 40.436 72.606 41.1517 72.4794 41.975C72.3654 42.7983 72.2894 43.6533 72.2514 44.54C72.2134 45.414 72.2134 46.2437 72.2514 47.029C72.302 47.8143 72.3907 48.473 72.5174 49.005ZM90.0755 48.568C90.1641 48.72 90.2718 48.9353 90.3985 49.214C90.5251 49.48 90.6011 49.7587 90.6265 50.05L88.0615 51.304C87.9348 51.2913 87.7511 51.2217 87.5105 51.095C87.2825 50.9683 87.0481 50.829 86.8075 50.677C86.5795 50.525 86.4085 50.4047 86.2945 50.316L86.3705 48.739C85.6991 49.4737 85.0341 50.088 84.3755 50.582C83.7295 51.0633 83.2228 51.304 82.8555 51.304C82.6655 51.2027 82.4121 51.0253 82.0955 50.772C81.7915 50.5187 81.5065 50.2337 81.2405 49.917C80.9745 49.6003 80.8035 49.2963 80.7275 49.005L81.1645 43.59L79.7585 43.951C79.6445 43.799 79.5305 43.5837 79.4165 43.305C79.3025 43.0263 79.2328 42.7413 79.2075 42.45L81.7725 41.196C82.1018 41.3607 82.4501 41.576 82.8175 41.842C83.1975 42.108 83.4888 42.3993 83.6915 42.716C83.4635 43.5013 83.2988 44.3057 83.1975 45.129C83.1088 45.9397 83.0708 46.6997 83.0835 47.409C83.0961 48.1057 83.1468 48.682 83.2355 49.138C83.7041 48.948 84.2108 48.5553 84.7555 47.96C85.3128 47.352 85.8258 46.6617 86.2945 45.889L86.3895 41.69C86.6808 41.614 87.0418 41.5443 87.4725 41.481C87.9158 41.4177 88.2768 41.424 88.5555 41.5C88.7581 41.7027 88.9355 41.9243 89.0875 42.165C89.2395 42.4057 89.3788 42.659 89.5055 42.925C89.4675 43.4443 89.3281 43.9953 89.0875 44.578C88.8595 45.1607 88.5618 45.7433 88.1945 46.326V46.364L88.4225 48.986L90.0755 48.568ZM95.7765 48.549C95.8778 48.701 95.9855 48.9163 96.0995 49.195C96.2262 49.4737 96.3022 49.7587 96.3275 50.05L93.7625 51.304C93.2938 51.0887 92.8822 50.829 92.5275 50.525C92.1728 50.221 91.9068 49.9043 91.7295 49.575L92.1285 43.343L92.2805 37.852L90.7985 38.232C90.7098 38.08 90.6022 37.871 90.4755 37.605C90.3488 37.3263 90.2728 37.0413 90.2475 36.75L92.8125 35.496C92.9392 35.5087 93.1355 35.572 93.4015 35.686C93.6802 35.8 93.9525 35.933 94.2185 36.085C94.4845 36.237 94.6745 36.37 94.7885 36.484L93.9715 43.514L94.1235 48.986L95.7765 48.549ZM99.3828 40.113C98.7241 39.7583 98.1288 39.2897 97.5968 38.707C97.6095 38.5043 97.6918 38.2763 97.8438 38.023C98.0085 37.757 98.1985 37.5163 98.4138 37.301C98.6418 37.073 98.8571 36.9337 99.0598 36.883C99.2625 36.883 99.4905 36.9653 99.7438 37.13C99.9971 37.282 100.231 37.472 100.447 37.7C100.662 37.9153 100.789 38.1243 100.827 38.327C100.814 38.5423 100.725 38.783 100.561 39.049C100.396 39.3023 100.206 39.5303 99.9908 39.733C99.7755 39.923 99.5728 40.0497 99.3828 40.113ZM101.473 48.454C101.561 48.606 101.669 48.8403 101.796 49.157C101.922 49.461 101.998 49.7587 102.024 50.05L99.4588 51.304C98.4961 50.8607 97.8375 50.2907 97.4828 49.594L97.8818 43.628L96.4948 44.046C96.4061 43.894 96.2985 43.666 96.1718 43.362C96.0451 43.0453 95.9691 42.7413 95.9438 42.45L98.5088 41.196C98.6355 41.2087 98.8191 41.2783 99.0598 41.405C99.3005 41.5317 99.5348 41.671 99.7628 41.823C100.003 41.975 100.187 42.1017 100.314 42.203L99.7818 46.383V48.967L101.473 48.454ZM112.586 48.549C112.7 48.701 112.814 48.9163 112.928 49.195C113.042 49.4737 113.112 49.7587 113.137 50.05L110.572 51.304C110.243 51.1393 109.895 50.924 109.527 50.658C109.16 50.392 108.869 50.1007 108.653 49.784C108.881 48.986 109.033 48.1817 109.109 47.371C109.185 46.5603 109.204 45.8067 109.166 45.11C109.141 44.4007 109.071 43.8243 108.957 43.381C108.641 43.5203 108.299 43.7673 107.931 44.122C107.577 44.464 107.222 44.8757 106.867 45.357C106.513 45.8383 106.183 46.3577 105.879 46.915L105.765 51C105.487 51.076 105.164 51.114 104.796 51.114C104.429 51.114 104.1 51.076 103.808 51C103.416 50.582 103.093 50.107 102.839 49.575C102.953 49.005 103.105 48.454 103.295 47.922C103.498 47.39 103.72 46.8897 103.96 46.421L103.979 46.136L103.751 43.514L102.098 43.932C102.01 43.78 101.902 43.571 101.775 43.305C101.649 43.0263 101.573 42.7413 101.547 42.45L104.112 41.196C104.239 41.2087 104.416 41.2783 104.644 41.405C104.885 41.5317 105.119 41.671 105.347 41.823C105.588 41.9623 105.765 42.0827 105.879 42.184L105.803 43.78C106.513 42.9693 107.222 42.336 107.931 41.88C108.653 41.424 109.249 41.196 109.717 41.196C109.907 41.2973 110.116 41.4747 110.344 41.728C110.572 41.9813 110.781 42.2663 110.971 42.583C111.161 42.887 111.294 43.191 111.37 43.495L111.047 48.948L112.586 48.549ZM121.817 36.522C121.488 37.13 121.083 37.7253 120.601 38.308C120.133 38.8907 119.601 39.467 119.005 40.037L117.618 39.239L119.613 35.363C119.981 35.4517 120.348 35.591 120.715 35.781C121.083 35.971 121.45 36.218 121.817 36.522ZM122.938 48.549C123.052 48.701 123.166 48.9163 123.28 49.195C123.394 49.4737 123.464 49.7587 123.489 50.05L120.924 51.304C120.62 51.2153 120.291 51.0697 119.936 50.867C119.594 50.6643 119.335 50.4807 119.157 50.316L119.233 48.929C118.6 49.6257 117.96 50.183 117.314 50.601C116.668 51.019 116.105 51.2533 115.623 51.304C115.433 51.2027 115.199 51.0253 114.92 50.772C114.654 50.506 114.401 50.2147 114.16 49.898C113.932 49.5687 113.78 49.2583 113.704 48.967L114.103 43.723C114.293 43.3177 114.566 42.9123 114.92 42.507C115.275 42.089 115.63 41.7533 115.984 41.5C116.896 41.3353 117.783 41.2403 118.644 41.215C119.506 41.177 120.456 41.3227 121.494 41.652C121.634 41.804 121.76 41.9877 121.874 42.203C121.988 42.4183 122.083 42.6273 122.159 42.83C122.248 43.02 122.299 43.1657 122.311 43.267C122.185 43.8243 122.014 44.369 121.798 44.901C121.596 45.433 121.349 45.9397 121.057 46.421L121.285 48.967L122.938 48.549ZM116.326 48.986C116.782 48.8213 117.283 48.4667 117.827 47.922C118.385 47.3773 118.891 46.7313 119.347 45.984L119.423 43.115C118.904 43.1023 118.404 43.1277 117.922 43.191C117.441 43.2543 116.985 43.3493 116.554 43.476C116.326 44.1093 116.162 44.7553 116.06 45.414C115.972 46.06 115.927 46.6617 115.927 47.219C115.94 47.7637 115.984 48.2007 116.06 48.53C116.136 48.8593 116.225 49.0113 116.326 48.986ZM130.328 41.196C130.619 41.348 130.898 41.633 131.164 42.051C131.443 42.4563 131.639 42.8807 131.753 43.324L131.582 45.699C131.367 45.851 131.094 45.965 130.765 46.041C130.436 46.1043 130.132 46.1423 129.853 46.155L129.397 45.718C129.46 45.2493 129.498 44.8377 129.511 44.483C129.536 44.1157 129.524 43.7927 129.473 43.514C129.08 43.8053 128.713 44.2297 128.371 44.787C128.042 45.3317 127.738 45.9397 127.459 46.611L127.516 51C127.237 51.076 126.914 51.114 126.547 51.114C126.18 51.114 125.85 51.076 125.559 51C125.166 50.582 124.843 50.107 124.59 49.575C124.679 49.157 124.805 48.7137 124.97 48.245C125.135 47.7637 125.325 47.2887 125.54 46.82V46.136L125.312 43.514L123.659 43.932C123.57 43.78 123.463 43.571 123.336 43.305C123.209 43.0263 123.133 42.7413 123.108 42.45L125.673 41.196C125.8 41.2087 125.977 41.2783 126.205 41.405C126.446 41.5317 126.68 41.671 126.908 41.823C127.149 41.9623 127.326 42.0827 127.44 42.184L127.364 43.685C127.883 42.963 128.409 42.3677 128.941 41.899C129.473 41.4303 129.935 41.196 130.328 41.196ZM135.676 40.113C135.017 39.7583 134.422 39.2897 133.89 38.707C133.902 38.5043 133.985 38.2763 134.137 38.023C134.301 37.757 134.491 37.5163 134.707 37.301C134.935 37.073 135.15 36.9337 135.353 36.883C135.555 36.883 135.783 36.9653 136.037 37.13C136.29 37.282 136.524 37.472 136.74 37.7C136.955 37.9153 137.082 38.1243 137.12 38.327C137.107 38.5423 137.018 38.783 136.854 39.049C136.689 39.3023 136.499 39.5303 136.284 39.733C136.068 39.923 135.866 40.0497 135.676 40.113ZM137.766 48.454C137.854 48.606 137.962 48.8403 138.089 49.157C138.215 49.461 138.291 49.7587 138.317 50.05L135.752 51.304C134.789 50.8607 134.13 50.2907 133.776 49.594L134.175 43.628L132.788 44.046C132.699 43.894 132.591 43.666 132.465 43.362C132.338 43.0453 132.262 42.7413 132.237 42.45L134.802 41.196C134.928 41.2087 135.112 41.2783 135.353 41.405C135.593 41.5317 135.828 41.671 136.056 41.823C136.296 41.975 136.48 42.1017 136.607 42.203L136.075 46.383V48.967L137.766 48.454ZM148.117 48.549C148.231 48.701 148.345 48.9163 148.459 49.195C148.573 49.4737 148.643 49.7587 148.668 50.05L146.103 51.304C145.799 51.2153 145.47 51.0697 145.115 50.867C144.773 50.6643 144.513 50.4807 144.336 50.316L144.412 48.929C143.779 49.6257 143.139 50.183 142.493 50.601C141.847 51.019 141.283 51.2533 140.802 51.304C140.612 51.2027 140.378 51.0253 140.099 50.772C139.833 50.506 139.58 50.2147 139.339 49.898C139.111 49.5687 138.959 49.2583 138.883 48.967L139.282 43.723C139.472 43.3177 139.744 42.9123 140.099 42.507C140.454 42.089 140.808 41.7533 141.163 41.5C142.075 41.3353 142.962 41.2403 143.823 41.215C144.684 41.177 145.634 41.3227 146.673 41.652C146.812 41.804 146.939 41.9877 147.053 42.203C147.167 42.4183 147.262 42.6273 147.338 42.83C147.427 43.02 147.477 43.1657 147.49 43.267C147.363 43.8243 147.192 44.369 146.977 44.901C146.774 45.433 146.527 45.9397 146.236 46.421L146.464 48.967L148.117 48.549ZM141.505 48.986C141.961 48.8213 142.461 48.4667 143.006 47.922C143.563 47.3773 144.07 46.7313 144.526 45.984L144.602 43.115C144.083 43.1023 143.582 43.1277 143.101 43.191C142.62 43.2543 142.164 43.3493 141.733 43.476C141.505 44.1093 141.34 44.7553 141.239 45.414C141.15 46.06 141.106 46.6617 141.106 47.219C141.119 47.7637 141.163 48.2007 141.239 48.53C141.315 48.8593 141.404 49.0113 141.505 48.986Z" fill="#F9C784"/>
<path d="M152 4.07422L159.618 7.79409C158.016 10.3009 157.205 11.6039 156.682 13.8086L149.063 10.0887C150.24 8.41348 150.878 7.1224 152 4.07422Z" fill="white"/>
<path d="M149.701 9.126L156.991 12.6882C156.916 12.9586 156.74 13.4994 156.703 13.818L149.046 10.0771C149.245 9.83981 149.542 9.35929 149.701 9.126Z" fill="#DADADA"/>
<path d="M152.969 5.375L153.971 5.86437L152.277 9.33361C152.792 6.63128 153.657 6.44287 152.969 5.375Z" fill="#DADADA"/>
<path d="M157.75 7.71094L156.748 7.22157L155.054 10.6908C156.868 8.62267 156.485 7.82518 157.75 7.71094Z" fill="#DADADA"/>
<path d="M156.336 6.50781L155.565 6.13138L153.858 9.62632C155.531 7.46733 155.294 6.73646 156.336 6.50781Z" fill="#DADADA"/>
<path d="M154.742 5.73047L155.565 6.132L153.858 9.62694C154.498 6.96386 155.253 6.71714 154.742 5.73047Z" fill="#DADADA"/>
<circle cx="151.63" cy="5.38908" r="2.67726" transform="rotate(26.0253 151.63 5.38908)" fill="white"/>
<circle cx="158.512" cy="8.72502" r="2.67726" transform="rotate(26.0253 158.512 8.72502)" fill="white"/>
<ellipse cx="155.81" cy="4.69585" rx="3.34658" ry="2.23105" transform="rotate(26.0253 155.81 4.69585)" fill="white"/>
<ellipse cx="155.099" cy="6.09819" rx="3.34658" ry="2.23105" transform="rotate(26.0253 155.099 6.09819)" fill="white"/>
<circle cx="156.186" cy="12.9293" r="0.285979" transform="rotate(26.0253 156.186 12.9293)" fill="#828282"/>
<path fill-rule="evenodd" clip-rule="evenodd" d="M9.87193 23.9418C10.8229 23.687 11.8003 24.2514 12.0551 25.2023L19.3504 52.4286C19.6052 53.3796 19.0409 54.357 18.0899 54.6118C17.139 54.8666 16.1615 54.3023 15.9067 53.3514L8.61146 26.125C8.35666 25.1741 8.92099 24.1966 9.87193 23.9418ZM17.9126 53.9634C17.3182 54.1226 16.7073 53.7699 16.5481 53.1756C16.3888 52.5813 16.7415 51.9704 17.3359 51.8111C17.9302 51.6519 18.5411 52.0046 18.7004 52.5989C18.8596 53.1932 18.5069 53.8041 17.9126 53.9634Z" fill="#7F5C50"/>
<ellipse cx="6.40609" cy="8.85711" rx="6.40609" ry="8.85711" transform="matrix(-0.965926 0.258819 0.258819 0.965926 12.375 8.73438)" fill="#7F5C50"/>
<ellipse cx="5.21786" cy="7.24167" rx="5.21786" ry="7.24167" transform="matrix(-0.965926 0.258819 0.258819 0.965926 11.5781 10.5664)" fill="#A57868"/>
<ellipse cx="2.78975" cy="3.84365" rx="2.78975" ry="3.84365" transform="matrix(-0.965926 0.258819 0.258819 0.965926 9.47656 16.1914)" fill="#AE806F"/>
<path fill-rule="evenodd" clip-rule="evenodd" d="M182.23 23.9418C181.279 23.687 180.301 24.2514 180.046 25.2023L172.751 52.4286C172.496 53.3796 173.061 54.357 174.012 54.6118C174.963 54.8666 175.94 54.3023 176.195 53.3514L183.49 26.125C183.745 25.1741 183.181 24.1966 182.23 23.9418ZM174.189 53.9634C174.783 54.1226 175.394 53.7699 175.553 53.1756C175.713 52.5813 175.36 51.9704 174.766 51.8111C174.171 51.6519 173.56 52.0046 173.401 52.5989C173.242 53.1932 173.595 53.8041 174.189 53.9634Z" fill="#7F5C50"/>
<ellipse cx="183.622" cy="18.9477" rx="6.40609" ry="8.85711" transform="rotate(15 183.622 18.9477)" fill="#7F5C50"/>
<ellipse cx="183.689" cy="18.9118" rx="5.21786" ry="7.24167" transform="rotate(15 183.689 18.9118)" fill="#A57868"/>
<ellipse cx="184.325" cy="20.6261" rx="2.78975" ry="3.84365" transform="rotate(15 184.325 20.6261)" fill="#AE806F"/>
</svg>
