<svg width="182" height="235" viewBox="0 0 182 235" fill="none" xmlns="http://www.w3.org/2000/svg">
<g filter="url(#filter0_d_3810_15377)">
<path fill-rule="evenodd" clip-rule="evenodd" d="M77.6038 85.5175C74.3622 87.3891 73.2516 91.5341 75.1231 94.7757L128.726 187.618C130.597 190.859 134.742 191.97 137.984 190.099C141.225 188.227 142.336 184.082 140.464 180.84L86.862 87.9982C84.9904 84.7566 80.8454 83.646 77.6038 85.5175ZM136.713 187.897C138.739 186.727 139.432 184.136 138.262 182.109C137.092 180.083 134.501 179.388 132.475 180.558C130.449 181.728 129.755 184.319 130.926 186.345C132.096 188.372 134.687 189.067 136.713 187.897Z" fill="#A6674F"/>
<ellipse cx="67.9361" cy="68.3499" rx="24.3564" ry="33.6856" transform="rotate(-30 67.9361 68.3499)" fill="#A6674F"/>
<ellipse cx="67.9985" cy="68.0692" rx="19.8387" ry="27.5417" transform="rotate(-30 67.9985 68.0692)" fill="#B68471"/>
<ellipse cx="74.4324" cy="70.958" rx="10.6068" ry="14.6183" transform="rotate(-30 74.4324 70.958)" fill="#B98876"/>
</g>
<defs>
<filter id="filter0_d_3810_15377" x="-10" y="-9" width="209.262" height="255.172" filterUnits="userSpaceOnUse" color-interpolation-filters="sRGB">
<feFlood flood-opacity="0" result="BackgroundImageFix"/>
<feColorMatrix in="SourceAlpha" type="matrix" values="0 0 0 0 0 0 0 0 0 0 0 0 0 0 0 0 0 0 127 0" result="hardAlpha"/>
<feOffset dy="4"/>
<feGaussianBlur stdDeviation="20"/>
<feComposite in2="hardAlpha" operator="out"/>
<feColorMatrix type="matrix" values="0 0 0 0 0.258824 0 0 0 0 0.278431 0 0 0 0 0.298039 0 0 0 0.15 0"/>
<feBlend mode="normal" in2="BackgroundImageFix" result="effect1_dropShadow_3810_15377"/>
<feBlend mode="normal" in="SourceGraphic" in2="effect1_dropShadow_3810_15377" result="shape"/>
</filter>
</defs>
</svg>
