<svg width="15" height="15" viewBox="0 0 15 15" fill="none" xmlns="http://www.w3.org/2000/svg">
<rect width="15" height="15" rx="2" fill="#00454B"/>
<path d="M4.09424 5.88037H11.3934C11.1006 8.42511 10.9654 9.73951 11.3934 11.6428H4.09424C4.37166 9.90233 4.37803 8.66225 4.09424 5.88037Z" fill="white"/>
<path d="M4.22792 10.6572L11.2136 10.6592C11.2578 10.8967 11.3259 11.3816 11.4175 11.6421L4.08032 11.6405C4.14488 11.3817 4.19277 10.8979 4.22792 10.6572Z" fill="#DADADA"/>
<path d="M5.33569 6.52051H6.29593V9.84437C5.67373 7.55909 6.27131 7.0868 5.33569 6.52051Z" fill="#DADADA"/>
<path d="M9.91577 6.52051H8.95553V9.84437C9.57773 7.55909 8.98015 7.0868 9.91577 6.52051Z" fill="#DADADA"/>
<path d="M8.36475 6.12695H7.6261V9.47544C8.10471 7.17322 7.64504 6.69744 8.36475 6.12695Z" fill="#DADADA"/>
<path d="M6.83838 6.12695H7.62627V9.47544C7.11575 7.17322 7.60606 6.69744 6.83838 6.12695Z" fill="#DADADA"/>
<ellipse cx="4.305" cy="7.03886" rx="2.305" ry="2.30497" fill="white"/>
<ellipse cx="10.8875" cy="7.01786" rx="2.305" ry="2.30497" fill="white"/>
<ellipse cx="7.28042" cy="4.92081" rx="2.88125" ry="1.92081" fill="white"/>
<ellipse cx="7.25771" cy="6.27481" rx="2.88125" ry="1.92081" fill="white"/>
<ellipse cx="10.6793" cy="11.1495" rx="0.246215" ry="0.246212" fill="#C0C0C0"/>
</svg>
