<svg width="195" height="191" viewBox="0 0 195 191" fill="none" xmlns="http://www.w3.org/2000/svg">
<g filter="url(#filter0_d_3810_15355)">
<path d="M72.0742 52.5273L140.84 92.2291C124.239 114.611 115.817 126.259 109.496 146.518L40.7307 106.816C52.8112 91.9277 59.6164 80.2793 72.0742 52.5273Z" fill="white"/>
<path d="M47.3475 98.2559L113.148 136.271C112.274 138.749 110.277 143.688 109.724 146.64L40.6086 106.717C42.6248 104.629 45.7073 100.332 47.3475 98.2559Z" fill="#DADADA"/>
<path d="M80.2891 65.3125L89.3355 70.5354L71.256 101.85C77.8246 76.9357 86.0233 75.7366 80.2891 65.3125Z" fill="#DADADA"/>
<path d="M123.434 90.2227L114.387 84.9997L96.3077 116.314C114.6 98.1685 111.539 90.4687 123.434 90.2227Z" fill="#DADADA"/>
<path d="M110.961 78.082L104.002 74.0644L85.7888 105.611C102.82 86.5247 101.078 79.542 110.961 78.082Z" fill="#DADADA"/>
<path d="M96.582 69.7773L104.005 74.0628L85.7914 105.609C93.5041 81.143 100.711 79.3275 96.582 69.7773Z" fill="#DADADA"/>
<circle cx="67.76" cy="64.5848" r="25.0748" transform="rotate(30 67.76 64.5848)" fill="white"/>
<circle cx="129.885" cy="100.194" r="25.0748" transform="rotate(30 129.885 100.194)" fill="white"/>
<ellipse cx="107.31" cy="60.8187" rx="31.3435" ry="20.8957" transform="rotate(30 107.31 60.8187)" fill="white"/>
<ellipse cx="99.7316" cy="73.4476" rx="31.3435" ry="20.8957" transform="rotate(30 99.7316 73.4476)" fill="white"/>
<circle cx="105.453" cy="137.987" r="2.67844" transform="rotate(30 105.453 137.987)" fill="#C0C0C0"/>
</g>
<defs>
<filter id="filter0_d_3810_15355" x="0.609375" y="0.878906" width="194.355" height="189.762" filterUnits="userSpaceOnUse" color-interpolation-filters="sRGB">
<feFlood flood-opacity="0" result="BackgroundImageFix"/>
<feColorMatrix in="SourceAlpha" type="matrix" values="0 0 0 0 0 0 0 0 0 0 0 0 0 0 0 0 0 0 127 0" result="hardAlpha"/>
<feOffset dy="4"/>
<feGaussianBlur stdDeviation="20"/>
<feComposite in2="hardAlpha" operator="out"/>
<feColorMatrix type="matrix" values="0 0 0 0 0.258824 0 0 0 0 0.278431 0 0 0 0 0.298039 0 0 0 0.15 0"/>
<feBlend mode="normal" in2="BackgroundImageFix" result="effect1_dropShadow_3810_15355"/>
<feBlend mode="normal" in="SourceGraphic" in2="effect1_dropShadow_3810_15355" result="shape"/>
</filter>
</defs>
</svg>
