<svg width="760" height="170" viewBox="0 0 760 170" fill="none" xmlns="http://www.w3.org/2000/svg">
<path d="M190.617 28.224C191.833 29.12 193.113 30.24 194.457 31.584C195.865 32.928 197.177 34.304 198.393 35.712C199.609 37.12 200.537 38.464 201.177 39.744L199.545 83.904C198.649 85.184 197.497 86.592 196.089 88.128C194.681 89.664 193.177 91.136 191.577 92.544C189.977 93.888 188.441 95.04 186.969 96H169.113C168.089 95.872 166.745 95.36 165.081 94.464C163.417 93.568 161.689 92.48 159.897 91.2C158.105 89.856 156.537 88.48 155.193 87.072C153.849 85.6 152.985 84.288 152.601 83.136L155.193 40.224C155.833 39.136 156.729 37.856 157.881 36.384C159.097 34.848 160.409 33.376 161.817 31.968C163.225 30.496 164.505 29.28 165.657 28.32C170.329 27.424 174.713 26.976 178.809 26.976C182.969 26.912 186.905 27.328 190.617 28.224ZM165.753 86.112L187.449 82.56C188.089 79.616 188.601 76.288 188.985 72.576C189.433 68.864 189.689 65.024 189.753 61.056C189.881 57.024 189.817 53.152 189.561 49.44C189.369 45.664 188.953 42.304 188.313 39.36C185.177 38.656 181.753 38.336 178.041 38.4C174.393 38.464 171.001 38.976 167.865 39.936C166.905 43.072 166.137 46.72 165.561 50.88C164.985 55.04 164.569 59.328 164.313 63.744C164.121 68.096 164.153 72.256 164.409 76.224C164.665 80.128 165.113 83.424 165.753 86.112ZM219.516 41.856C220.22 44.096 221.596 46.176 223.644 48.096C225.692 50.016 228.092 51.936 230.844 53.856C233.66 55.712 236.54 57.728 239.484 59.904C242.492 62.08 245.308 64.576 247.932 67.392C250.62 70.208 252.796 73.504 254.46 77.28C254.076 79.776 253.148 82.304 251.676 84.864C250.204 87.36 248.444 89.632 246.396 91.68C244.348 93.728 242.236 95.328 240.06 96.48C237.756 96.864 235.1 97.12 232.092 97.248C229.084 97.44 225.948 97.376 222.684 97.056C219.484 96.736 216.38 96.096 213.372 95.136C212.476 94.432 211.42 93.376 210.204 91.968C208.988 90.56 207.932 89.248 207.036 88.032L208.572 73.248C209.788 72.864 211.196 72.608 212.796 72.48C214.46 72.352 215.932 72.48 217.212 72.864L218.076 85.344C220.636 85.728 223.42 85.856 226.428 85.728C229.5 85.6 232.508 85.248 235.452 84.672C238.46 84.032 241.052 83.136 243.228 81.984C241.948 79.424 240.124 77.088 237.756 74.976C235.388 72.8 232.764 70.72 229.884 68.736C227.068 66.688 224.252 64.608 221.436 62.496C218.62 60.384 216.06 58.144 213.756 55.776C211.516 53.408 209.82 50.752 208.668 47.808C209.116 45.312 209.884 42.848 210.972 40.416C212.124 37.92 213.436 35.68 214.908 33.696C216.444 31.648 217.948 30.112 219.42 29.088C228.7 26.464 238.14 26.112 247.74 28.032C248.38 28.416 249.02 29.088 249.66 30.048C250.3 30.944 250.908 31.904 251.484 32.928C252.124 33.952 252.636 34.752 253.02 35.328L251.58 48.384C250.364 48.832 248.988 49.056 247.452 49.056C245.98 49.056 244.508 48.896 243.036 48.576L242.172 38.208C239.996 38.016 237.564 38.016 234.876 38.208C232.188 38.336 229.5 38.688 226.812 39.264C224.124 39.84 221.692 40.704 219.516 41.856ZM345.107 64.992L347.795 96.192L342.419 97.536C340.755 96.704 339.059 95.584 337.331 94.176C335.603 92.704 334.195 90.944 333.107 88.896L335.219 63.744L334.259 41.856L317.459 92.832L313.907 93.984C309.811 91.616 306.643 88.224 304.403 83.808L297.011 44.256L294.419 64.992L293.555 96.192L287.987 97.536C284.659 95.872 281.875 92.992 279.635 88.896L285.107 63.744L287.795 39.264L279.731 39.552C278.835 38.016 278.323 36.256 278.195 34.272C278.131 32.224 278.323 30.4 278.771 28.8H292.691C293.651 29.248 294.803 29.952 296.147 30.912C297.555 31.872 298.963 32.896 300.371 33.984C301.843 35.072 303.091 36.096 304.115 37.056L313.619 76.896L330.227 30.048L333.011 28.128C333.715 28.256 334.739 28.608 336.083 29.184C337.491 29.76 338.867 30.4 340.211 31.104C341.555 31.808 342.515 32.48 343.091 33.12L345.107 64.992ZM391.135 80.928C391.583 81.504 392.063 82.624 392.575 84.288C393.151 85.952 393.407 87.424 393.343 88.704C390.591 89.856 387.711 91.008 384.703 92.16C381.695 93.248 378.879 94.272 376.255 95.232C373.695 96.192 371.583 96.96 369.919 97.536C367.935 97.024 365.855 96.224 363.679 95.136C361.503 94.048 359.519 92.768 357.727 91.296C355.935 89.76 354.655 88.224 353.887 86.688L355.231 57.312C356.127 55.712 357.375 54.112 358.975 52.512C360.639 50.848 362.271 49.344 363.871 48C367.583 47.168 371.199 46.656 374.719 46.464C378.303 46.272 381.727 46.432 384.991 46.944C385.567 47.264 386.335 47.968 387.295 49.056C388.319 50.08 389.311 51.136 390.271 52.224C391.231 53.312 391.871 54.112 392.191 54.624L391.807 68.928C390.143 70.144 387.903 71.424 385.087 72.768C382.271 74.112 379.167 75.424 375.775 76.704C372.383 77.92 368.991 79.008 365.599 79.968C365.663 81.184 365.759 82.368 365.887 83.52C366.015 84.672 366.175 85.792 366.367 86.88L391.135 80.928ZM381.535 56.832C379.231 56.512 376.991 56.416 374.815 56.544C372.639 56.672 370.367 57.056 367.999 57.696C367.359 59.68 366.847 61.824 366.463 64.128C366.079 66.432 365.791 68.768 365.599 71.136C368.351 70.24 371.231 69.088 374.239 67.68C377.311 66.208 380.095 64.672 382.591 63.072L381.535 56.832ZM409.362 57.408C410.322 59.392 411.826 61.152 413.874 62.688C415.922 64.16 418.226 65.728 420.786 67.392C423.346 68.992 425.874 70.912 428.37 73.152C430.93 75.328 433.202 78.112 435.186 81.504C434.674 84.448 433.746 87.232 432.402 89.856C431.058 92.48 429.426 94.528 427.506 96C424.37 96.832 420.914 97.28 417.138 97.344C413.362 97.472 409.33 97.12 405.042 96.288C404.21 95.648 403.25 94.848 402.162 93.888C401.074 92.864 400.114 91.808 399.282 90.72L399.762 78.144C400.85 77.76 402.13 77.536 403.602 77.472C405.074 77.344 406.418 77.44 407.634 77.76L409.17 88.224C411.986 88.672 414.866 88.704 417.81 88.32C420.818 87.872 423.314 87.168 425.298 86.208C423.698 84.096 421.682 82.208 419.25 80.544C416.882 78.88 414.386 77.248 411.762 75.648C409.202 73.984 406.802 72.096 404.562 69.984C402.386 67.872 400.69 65.28 399.474 62.208C399.666 60.8 400.082 59.2 400.722 57.408C401.362 55.552 402.13 53.792 403.026 52.128C403.986 50.464 405.01 49.152 406.098 48.192C410.258 47.04 414.226 46.464 418.002 46.464C421.778 46.4 425.81 46.816 430.098 47.712C430.93 48.224 431.794 49.12 432.69 50.4C433.65 51.68 434.386 52.704 434.898 53.472L433.554 65.376C432.466 65.76 431.218 65.952 429.81 65.952C428.402 65.952 427.058 65.824 425.778 65.568L424.914 55.776C422.354 55.584 419.698 55.616 416.946 55.872C414.258 56.128 411.73 56.64 409.362 57.408ZM476.387 82.56C476.835 83.136 477.315 84.16 477.827 85.632C478.339 87.104 478.563 88.48 478.499 89.76C476.771 90.784 474.787 91.808 472.547 92.832C470.307 93.856 468.131 94.784 466.019 95.616C463.971 96.448 462.243 97.088 460.835 97.536C459.171 97.024 457.347 96.224 455.363 95.136C453.379 94.048 451.587 92.768 449.987 91.296C448.451 89.76 447.459 88.224 447.011 86.688L449.123 59.232L441.731 60.672L439.331 54.144L449.219 45.6L448.547 37.92C449.635 36.768 450.947 35.648 452.483 34.56C454.019 33.408 455.491 32.544 456.899 31.968L460.451 34.464L460.067 47.808C462.691 47.552 465.379 47.392 468.131 47.328C470.947 47.264 473.731 47.36 476.483 47.616L477.443 55.296L474.467 58.368C469.347 57.984 464.451 57.888 459.779 58.08C459.331 60.96 459.011 64.096 458.819 67.488C458.627 70.88 458.627 74.24 458.819 77.568C459.011 80.832 459.459 83.84 460.163 86.592L476.387 82.56ZM515.036 46.464C516.508 47.232 517.916 48.672 519.26 50.784C520.668 52.832 521.66 54.976 522.236 57.216L521.372 69.216C520.284 69.984 518.908 70.56 517.244 70.944C515.58 71.264 514.044 71.456 512.636 71.52L510.332 69.312C510.652 66.944 510.844 64.864 510.908 63.072C511.036 61.216 510.972 59.584 510.716 58.176C508.732 59.648 506.876 61.792 505.148 64.608C503.484 67.36 501.948 70.432 500.54 73.824L500.828 96C499.42 96.384 497.788 96.576 495.932 96.576C494.076 96.576 492.412 96.384 490.94 96C488.956 93.888 487.324 91.488 486.044 88.8C486.492 86.688 487.132 84.448 487.964 82.08C488.796 79.648 489.756 77.248 490.844 74.88V71.424L489.692 58.176L481.34 60.288C480.892 59.52 480.348 58.464 479.708 57.12C479.068 55.712 478.684 54.272 478.556 52.8L491.516 46.464C492.156 46.528 493.052 46.88 494.204 47.52C495.42 48.16 496.604 48.864 497.756 49.632C498.972 50.336 499.868 50.944 500.444 51.456L500.06 59.04C502.684 55.392 505.34 52.384 508.028 50.016C510.716 47.648 513.052 46.464 515.036 46.464ZM563.354 80.928C563.802 81.504 564.282 82.624 564.794 84.288C565.37 85.952 565.626 87.424 565.562 88.704C562.81 89.856 559.93 91.008 556.922 92.16C553.914 93.248 551.098 94.272 548.474 95.232C545.914 96.192 543.802 96.96 542.138 97.536C540.154 97.024 538.074 96.224 535.898 95.136C533.722 94.048 531.738 92.768 529.946 91.296C528.154 89.76 526.874 88.224 526.106 86.688L527.45 57.312C528.346 55.712 529.594 54.112 531.194 52.512C532.858 50.848 534.49 49.344 536.09 48C539.802 47.168 543.418 46.656 546.938 46.464C550.522 46.272 553.946 46.432 557.21 46.944C557.786 47.264 558.554 47.968 559.514 49.056C560.538 50.08 561.53 51.136 562.49 52.224C563.45 53.312 564.09 54.112 564.41 54.624L564.026 68.928C562.362 70.144 560.122 71.424 557.306 72.768C554.49 74.112 551.386 75.424 547.994 76.704C544.602 77.92 541.21 79.008 537.818 79.968C537.882 81.184 537.978 82.368 538.106 83.52C538.234 84.672 538.394 85.792 538.586 86.88L563.354 80.928ZM553.754 56.832C551.45 56.512 549.21 56.416 547.034 56.544C544.858 56.672 542.586 57.056 540.218 57.696C539.578 59.68 539.066 61.824 538.682 64.128C538.298 66.432 538.01 68.768 537.818 71.136C540.57 70.24 543.45 69.088 546.458 67.68C549.53 66.208 552.314 64.672 554.81 63.072L553.754 56.832ZM581.581 57.408C582.541 59.392 584.045 61.152 586.093 62.688C588.141 64.16 590.445 65.728 593.005 67.392C595.565 68.992 598.093 70.912 600.589 73.152C603.149 75.328 605.421 78.112 607.405 81.504C606.893 84.448 605.965 87.232 604.621 89.856C603.277 92.48 601.645 94.528 599.725 96C596.589 96.832 593.133 97.28 589.357 97.344C585.581 97.472 581.549 97.12 577.261 96.288C576.429 95.648 575.469 94.848 574.381 93.888C573.293 92.864 572.333 91.808 571.501 90.72L571.981 78.144C573.069 77.76 574.349 77.536 575.821 77.472C577.293 77.344 578.637 77.44 579.853 77.76L581.389 88.224C584.205 88.672 587.085 88.704 590.029 88.32C593.037 87.872 595.533 87.168 597.517 86.208C595.917 84.096 593.901 82.208 591.469 80.544C589.101 78.88 586.605 77.248 583.981 75.648C581.421 73.984 579.021 72.096 576.781 69.984C574.605 67.872 572.909 65.28 571.693 62.208C571.885 60.8 572.301 59.2 572.941 57.408C573.581 55.552 574.349 53.792 575.245 52.128C576.205 50.464 577.229 49.152 578.317 48.192C582.477 47.04 586.445 46.464 590.221 46.464C593.997 46.4 598.029 46.816 602.317 47.712C603.149 48.224 604.013 49.12 604.909 50.4C605.869 51.68 606.605 52.704 607.117 53.472L605.773 65.376C604.685 65.76 603.437 65.952 602.029 65.952C600.621 65.952 599.277 65.824 597.997 65.568L597.133 55.776C594.573 55.584 591.917 55.616 589.165 55.872C586.477 56.128 583.949 56.64 581.581 57.408Z" fill="#EDF6F9"/>
<path d="M274.631 142.808C274.919 143.192 275.207 143.736 275.495 144.44C275.783 145.144 275.959 145.864 276.023 146.6L269.543 149.768C269.223 149.736 268.759 149.56 268.151 149.24C267.575 148.92 266.983 148.568 266.375 148.184C265.799 147.8 265.367 147.496 265.079 147.272L265.319 142.424C263.527 144.568 261.687 146.296 259.799 147.608C257.943 148.92 256.391 149.64 255.143 149.768C254.663 149.512 254.071 149.064 253.367 148.424C252.695 147.752 252.055 147.016 251.447 146.216C250.871 145.384 250.487 144.6 250.295 143.864L251.303 130.616C251.783 129.592 252.471 128.568 253.367 127.544C254.263 126.488 255.159 125.64 256.055 125C259.287 124.168 262.519 124.056 265.751 124.664L265.799 115.784L262.007 116.744C261.783 116.36 261.511 115.832 261.191 115.16C260.871 114.456 260.679 113.736 260.615 113L267.095 109.832C267.415 109.864 267.863 110.024 268.439 110.312C269.047 110.6 269.639 110.936 270.215 111.32C270.823 111.704 271.271 112.04 271.559 112.328L270.119 137.192L270.551 143.864L274.631 142.808ZM256.919 143.912C257.847 143.592 258.839 142.952 259.895 141.992C260.983 141 262.023 139.816 263.015 138.44C264.039 137.032 264.935 135.544 265.703 133.976L265.751 129.608C264.375 129.288 262.967 129.192 261.527 129.32C260.087 129.416 258.759 129.624 257.543 129.944C256.935 131.608 256.503 133.288 256.247 134.984C256.023 136.648 255.911 138.168 255.911 139.544C255.943 140.92 256.055 142.008 256.247 142.808C256.439 143.608 256.663 143.976 256.919 143.912ZM300.811 142.808C301.099 143.192 301.387 143.736 301.675 144.44C301.963 145.144 302.139 145.864 302.203 146.6L295.723 149.768C294.955 149.544 294.123 149.176 293.227 148.664C292.363 148.152 291.707 147.688 291.259 147.272L291.451 143.768C289.851 145.528 288.235 146.936 286.603 147.992C284.971 149.048 283.547 149.64 282.331 149.768C281.851 149.512 281.259 149.064 280.555 148.424C279.883 147.752 279.243 147.016 278.635 146.216C278.059 145.384 277.675 144.6 277.483 143.864L278.491 130.616C278.971 129.592 279.659 128.568 280.555 127.544C281.451 126.488 282.347 125.64 283.243 125C285.547 124.584 287.787 124.344 289.963 124.28C292.139 124.184 294.539 124.552 297.163 125.384C297.515 125.768 297.835 126.232 298.123 126.776C298.411 127.32 298.651 127.848 298.843 128.36C299.067 128.84 299.195 129.208 299.227 129.464C298.907 130.872 298.475 132.248 297.931 133.592C297.419 134.936 296.795 136.216 296.059 137.432L296.635 143.864L300.811 142.808ZM284.107 143.912C285.259 143.496 286.523 142.6 287.898 141.224C289.307 139.848 290.587 138.216 291.739 136.328L291.931 129.08C290.619 129.048 289.355 129.112 288.139 129.272C286.923 129.432 285.771 129.672 284.683 129.992C284.107 131.592 283.691 133.224 283.435 134.888C283.211 136.52 283.099 138.04 283.099 139.448C283.131 140.824 283.243 141.928 283.435 142.76C283.627 143.592 283.851 143.976 284.107 143.912ZM319.728 143.96L334.512 140.984L335.712 143.432C335.2 144.424 334.48 145.432 333.552 146.456C332.624 147.448 331.728 148.296 330.864 149H321.456C320.944 148.936 320.256 148.68 319.392 148.232C318.56 147.784 317.696 147.24 316.8 146.6C315.904 145.928 315.12 145.24 314.448 144.536C313.776 143.8 313.344 143.144 313.152 142.568L314.448 121.064C314.768 120.52 315.216 119.88 315.792 119.144C316.4 118.376 317.056 117.64 317.76 116.936C318.464 116.2 319.104 115.592 319.68 115.112C322.016 114.664 324.352 114.44 326.688 114.44C329.056 114.44 331.408 114.792 333.744 115.496C334.192 115.912 334.64 116.456 335.088 117.128C335.536 117.768 335.888 118.344 336.144 118.856L335.472 125.912C334.928 126.104 334.208 126.216 333.312 126.248C332.416 126.248 331.648 126.184 331.008 126.056L330.336 120.056C328.768 119.928 327.152 119.912 325.488 120.008C323.856 120.072 322.304 120.328 320.832 120.776C320.352 122.312 319.952 124.12 319.632 126.2C319.344 128.28 319.152 130.44 319.056 132.68C318.96 134.888 318.96 136.984 319.056 138.968C319.184 140.952 319.408 142.616 319.728 143.96ZM364.085 142.856C364.309 143.24 364.581 143.784 364.901 144.488C365.221 145.16 365.413 145.864 365.477 146.6L358.997 149.768C358.677 149.736 358.213 149.56 357.605 149.24C357.029 148.92 356.437 148.568 355.829 148.184C355.253 147.8 354.821 147.496 354.533 147.272L354.725 143.288C353.029 145.144 351.349 146.696 349.685 147.944C348.053 149.16 346.773 149.768 345.845 149.768C345.365 149.512 344.725 149.064 343.925 148.424C343.157 147.784 342.437 147.064 341.765 146.264C341.093 145.464 340.661 144.696 340.469 143.96L341.573 130.28L338.021 131.192C337.733 130.808 337.445 130.264 337.157 129.56C336.869 128.856 336.693 128.136 336.629 127.4L343.109 124.232C343.941 124.648 344.821 125.192 345.749 125.864C346.709 126.536 347.445 127.272 347.957 128.072C347.381 130.056 346.965 132.088 346.709 134.168C346.485 136.216 346.389 138.136 346.421 139.928C346.453 141.688 346.581 143.144 346.805 144.296C347.989 143.816 349.269 142.824 350.645 141.32C352.053 139.784 353.349 138.04 354.533 136.088L354.773 125.48C355.509 125.288 356.421 125.112 357.509 124.952C358.629 124.792 359.541 124.808 360.245 125C360.757 125.512 361.205 126.072 361.589 126.68C361.973 127.288 362.325 127.928 362.645 128.6C362.549 129.912 362.197 131.304 361.589 132.776C361.013 134.248 360.261 135.72 359.333 137.192V137.288L359.909 143.912L364.085 142.856ZM378.488 142.808C378.744 143.192 379.016 143.736 379.304 144.44C379.624 145.144 379.816 145.864 379.88 146.6L373.4 149.768C372.216 149.224 371.176 148.568 370.28 147.8C369.384 147.032 368.712 146.232 368.264 145.4L369.272 129.656L369.656 115.784L365.912 116.744C365.688 116.36 365.416 115.832 365.096 115.16C364.776 114.456 364.584 113.736 364.52 113L371 109.832C371.32 109.864 371.816 110.024 372.488 110.312C373.192 110.6 373.88 110.936 374.552 111.32C375.224 111.704 375.704 112.04 375.992 112.328L373.928 130.088L374.312 143.912L378.488 142.808ZM387.599 121.496C385.935 120.6 384.431 119.416 383.087 117.944C383.119 117.432 383.327 116.856 383.711 116.216C384.127 115.544 384.607 114.936 385.151 114.392C385.727 113.816 386.271 113.464 386.783 113.336C387.295 113.336 387.871 113.544 388.511 113.96C389.151 114.344 389.743 114.824 390.287 115.4C390.831 115.944 391.151 116.472 391.247 116.984C391.215 117.528 390.991 118.136 390.575 118.808C390.159 119.448 389.679 120.024 389.135 120.536C388.591 121.016 388.079 121.336 387.599 121.496ZM392.879 142.568C393.103 142.952 393.375 143.544 393.695 144.344C394.015 145.112 394.207 145.864 394.271 146.6L387.791 149.768C385.359 148.648 383.695 147.208 382.799 145.448L383.807 130.376L380.303 131.432C380.079 131.048 379.807 130.472 379.487 129.704C379.167 128.904 378.975 128.136 378.911 127.4L385.391 124.232C385.711 124.264 386.175 124.44 386.783 124.76C387.391 125.08 387.983 125.432 388.559 125.816C389.167 126.2 389.631 126.52 389.951 126.776L388.607 137.336V143.864L392.879 142.568ZM420.955 142.808C421.243 143.192 421.531 143.736 421.819 144.44C422.107 145.144 422.283 145.864 422.347 146.6L415.867 149.768C415.035 149.352 414.155 148.808 413.227 148.136C412.299 147.464 411.563 146.728 411.019 145.928C411.595 143.912 411.979 141.88 412.171 139.832C412.363 137.784 412.411 135.88 412.315 134.12C412.251 132.328 412.075 130.872 411.787 129.752C410.987 130.104 410.123 130.728 409.195 131.624C408.299 132.488 407.403 133.528 406.507 134.744C405.611 135.96 404.779 137.272 404.011 138.68L403.723 149C403.019 149.192 402.203 149.288 401.275 149.288C400.347 149.288 399.515 149.192 398.779 149C397.787 147.944 396.971 146.744 396.331 145.4C396.619 143.96 397.003 142.568 397.483 141.224C397.995 139.88 398.555 138.616 399.163 137.432L399.211 136.712L398.635 130.088L394.459 131.144C394.235 130.76 393.963 130.232 393.643 129.56C393.323 128.856 393.131 128.136 393.067 127.4L399.547 124.232C399.867 124.264 400.315 124.44 400.891 124.76C401.499 125.08 402.091 125.432 402.667 125.816C403.275 126.168 403.723 126.472 404.011 126.728L403.819 130.76C405.611 128.712 407.403 127.112 409.195 125.96C411.019 124.808 412.523 124.232 413.707 124.232C414.187 124.488 414.715 124.936 415.291 125.576C415.867 126.216 416.395 126.936 416.875 127.736C417.355 128.504 417.691 129.272 417.883 130.04L417.067 143.816L420.955 142.808ZM444.275 112.424C443.443 113.96 442.419 115.464 441.203 116.936C440.019 118.408 438.675 119.864 437.171 121.304L433.667 119.288L438.707 109.496C439.635 109.72 440.563 110.072 441.491 110.552C442.419 111.032 443.347 111.656 444.275 112.424ZM447.107 142.808C447.395 143.192 447.683 143.736 447.971 144.44C448.259 145.144 448.435 145.864 448.499 146.6L442.019 149.768C441.251 149.544 440.419 149.176 439.523 148.664C438.659 148.152 438.003 147.688 437.555 147.272L437.747 143.768C436.147 145.528 434.531 146.936 432.899 147.992C431.267 149.048 429.843 149.64 428.627 149.768C428.147 149.512 427.555 149.064 426.851 148.424C426.179 147.752 425.539 147.016 424.931 146.216C424.355 145.384 423.971 144.6 423.779 143.864L424.787 130.616C425.267 129.592 425.955 128.568 426.851 127.544C427.747 126.488 428.643 125.64 429.539 125C431.843 124.584 434.083 124.344 436.259 124.28C438.435 124.184 440.835 124.552 443.459 125.384C443.811 125.768 444.131 126.232 444.419 126.776C444.707 127.32 444.947 127.848 445.139 128.36C445.363 128.84 445.491 129.208 445.523 129.464C445.203 130.872 444.771 132.248 444.227 133.592C443.715 134.936 443.091 136.216 442.355 137.432L442.931 143.864L447.107 142.808ZM430.403 143.912C431.555 143.496 432.819 142.6 434.195 141.224C435.603 139.848 436.883 138.216 438.035 136.328L438.227 129.08C436.915 129.048 435.651 129.112 434.435 129.272C433.219 129.432 432.067 129.672 430.979 129.992C430.403 131.592 429.987 133.224 429.731 134.888C429.507 136.52 429.395 138.04 429.395 139.448C429.427 140.824 429.539 141.928 429.731 142.76C429.923 143.592 430.147 143.976 430.403 143.912ZM465.776 124.232C466.512 124.616 467.216 125.336 467.888 126.392C468.592 127.416 469.088 128.488 469.376 129.608L468.944 135.608C468.4 135.992 467.712 136.28 466.88 136.472C466.048 136.632 465.28 136.728 464.576 136.76L463.424 135.656C463.584 134.472 463.68 133.432 463.712 132.536C463.776 131.608 463.744 130.792 463.616 130.088C462.624 130.824 461.696 131.896 460.832 133.304C460 134.68 459.232 136.216 458.528 137.912L458.672 149C457.968 149.192 457.152 149.288 456.224 149.288C455.296 149.288 454.464 149.192 453.728 149C452.736 147.944 451.92 146.744 451.28 145.4C451.504 144.344 451.824 143.224 452.24 142.04C452.656 140.824 453.136 139.624 453.68 138.44V136.712L453.104 130.088L448.928 131.144C448.704 130.76 448.432 130.232 448.112 129.56C447.792 128.856 447.6 128.136 447.536 127.4L454.016 124.232C454.336 124.264 454.784 124.44 455.36 124.76C455.968 125.08 456.56 125.432 457.136 125.816C457.744 126.168 458.192 126.472 458.48 126.728L458.288 130.52C459.6 128.696 460.928 127.192 462.272 126.008C463.616 124.824 464.784 124.232 465.776 124.232ZM479.286 121.496C477.622 120.6 476.118 119.416 474.774 117.944C474.806 117.432 475.014 116.856 475.398 116.216C475.814 115.544 476.294 114.936 476.838 114.392C477.414 113.816 477.958 113.464 478.47 113.336C478.982 113.336 479.558 113.544 480.198 113.96C480.838 114.344 481.43 114.824 481.974 115.4C482.518 115.944 482.838 116.472 482.934 116.984C482.902 117.528 482.678 118.136 482.262 118.808C481.846 119.448 481.366 120.024 480.822 120.536C480.278 121.016 479.766 121.336 479.286 121.496ZM484.566 142.568C484.79 142.952 485.062 143.544 485.382 144.344C485.702 145.112 485.894 145.864 485.958 146.6L479.478 149.768C477.046 148.648 475.382 147.208 474.486 145.448L475.494 130.376L471.99 131.432C471.766 131.048 471.494 130.472 471.174 129.704C470.854 128.904 470.662 128.136 470.598 127.4L477.078 124.232C477.398 124.264 477.862 124.44 478.47 124.76C479.078 125.08 479.67 125.432 480.246 125.816C480.854 126.2 481.318 126.52 481.638 126.776L480.294 137.336V143.864L484.566 142.568ZM510.717 142.808C511.005 143.192 511.293 143.736 511.581 144.44C511.869 145.144 512.045 145.864 512.109 146.6L505.629 149.768C504.861 149.544 504.029 149.176 503.133 148.664C502.269 148.152 501.613 147.688 501.165 147.272L501.357 143.768C499.757 145.528 498.141 146.936 496.509 147.992C494.877 149.048 493.453 149.64 492.237 149.768C491.757 149.512 491.165 149.064 490.461 148.424C489.789 147.752 489.149 147.016 488.541 146.216C487.965 145.384 487.581 144.6 487.389 143.864L488.397 130.616C488.877 129.592 489.565 128.568 490.461 127.544C491.357 126.488 492.253 125.64 493.149 125C495.453 124.584 497.693 124.344 499.869 124.28C502.045 124.184 504.445 124.552 507.069 125.384C507.421 125.768 507.741 126.232 508.029 126.776C508.317 127.32 508.557 127.848 508.749 128.36C508.973 128.84 509.101 129.208 509.133 129.464C508.813 130.872 508.381 132.248 507.837 133.592C507.325 134.936 506.701 136.216 505.965 137.432L506.541 143.864L510.717 142.808ZM494.013 143.912C495.165 143.496 496.429 142.6 497.805 141.224C499.213 139.848 500.493 138.216 501.645 136.328L501.837 129.08C500.525 129.048 499.261 129.112 498.045 129.272C496.829 129.432 495.677 129.672 494.589 129.992C494.013 131.592 493.597 133.224 493.341 134.888C493.117 136.52 493.005 138.04 493.005 139.448C493.037 140.824 493.149 141.928 493.341 142.76C493.533 143.592 493.757 143.976 494.013 143.912Z" fill="#F9C784"/>
<path d="M555.281 13.7422L580.987 26.2939C575.58 34.7524 572.844 39.1491 571.078 46.5881L545.372 34.0364C549.342 28.3838 551.497 24.0274 555.281 13.7422Z" fill="white"/>
<path d="M547.528 30.789L572.126 42.8086C571.874 43.7209 571.279 45.5459 571.154 46.6207L545.317 33.9981C545.989 33.1975 546.99 31.5761 547.528 30.789Z" fill="#DADADA"/>
<path d="M558.555 18.125L561.936 19.7762L556.221 31.4823C557.959 22.364 560.876 21.7283 558.555 18.125Z" fill="#DADADA"/>
<path d="M574.68 26.0117L571.298 24.3605L565.582 36.0665C571.703 29.0881 570.411 26.3972 574.68 26.0117Z" fill="#DADADA"/>
<path d="M569.906 21.957L567.305 20.6869L561.547 32.4796C567.191 25.1947 566.391 22.7286 569.906 21.957Z" fill="#DADADA"/>
<path d="M564.539 19.332L567.314 20.6869L561.556 32.4796C563.717 23.4938 566.262 22.6613 564.539 19.332Z" fill="#DADADA"/>
<circle cx="554.037" cy="18.179" r="9.0337" transform="rotate(26.0253 554.037 18.179)" fill="white"/>
<circle cx="577.263" cy="29.4368" r="9.0337" transform="rotate(26.0253 577.263 29.4368)" fill="white"/>
<ellipse cx="568.133" cy="15.8365" rx="11.2921" ry="7.52808" transform="rotate(26.0253 568.133 15.8365)" fill="white"/>
<ellipse cx="565.735" cy="20.5709" rx="11.2921" ry="7.52808" transform="rotate(26.0253 565.735 20.5709)" fill="white"/>
<circle cx="569.412" cy="43.6186" r="0.96496" transform="rotate(26.0253 569.412 43.6186)" fill="#828282"/>
</svg>
